<svg xmlns="http://www.w3.org/2000/svg" xmlns:xlink="http://www.w3.org/1999/xlink" width="500" zoomAndPan="magnify" viewBox="0 0 375 374.999991" height="500" preserveAspectRatio="xMidYMid meet" version="1.0"><defs><g/><clipPath id="b4737cd181"><path d="M 81 152.144531 L 137.847656 152.144531 L 137.847656 222.644531 L 81 222.644531 Z M 81 152.144531 " clip-rule="nonzero"/></clipPath><clipPath id="0aa42ccccf"><path d="M 179.375 70.363281 L 194.121094 70.363281 L 194.121094 85.109375 L 179.375 85.109375 Z M 179.375 70.363281 " clip-rule="nonzero"/></clipPath><clipPath id="e37b04265a"><path d="M 186.75 70.363281 C 182.675781 70.363281 179.375 73.664062 179.375 77.734375 C 179.375 81.808594 182.675781 85.109375 186.75 85.109375 C 190.820312 85.109375 194.121094 81.808594 194.121094 77.734375 C 194.121094 73.664062 190.820312 70.363281 186.75 70.363281 Z M 186.75 70.363281 " clip-rule="nonzero"/></clipPath><clipPath id="7c5b09ac5a"><path d="M 0.375 0.363281 L 15.121094 0.363281 L 15.121094 15.109375 L 0.375 15.109375 Z M 0.375 0.363281 " clip-rule="nonzero"/></clipPath><clipPath id="d2a4a46ad2"><path d="M 7.75 0.363281 C 3.675781 0.363281 0.375 3.664062 0.375 7.734375 C 0.375 11.808594 3.675781 15.109375 7.75 15.109375 C 11.820312 15.109375 15.121094 11.808594 15.121094 7.734375 C 15.121094 3.664062 11.820312 0.363281 7.75 0.363281 Z M 7.75 0.363281 " clip-rule="nonzero"/></clipPath><clipPath id="f58656d379"><rect x="0" width="16" y="0" height="16"/></clipPath></defs><g clip-path="url(#b4737cd181)"><path fill="#00bf63" d="M 99.023438 210.792969 L 118.667969 210.792969 C 119.488281 210.792969 120.042969 211.558594 120.042969 212.335938 C 120.042969 213.117188 119.488281 213.882812 118.667969 213.882812 L 99.023438 213.882812 C 98.199219 213.882812 97.648438 213.113281 97.648438 212.335938 C 97.648438 211.554688 98.199219 210.792969 99.023438 210.792969 Z M 112.519531 189.617188 L 105.734375 189.617188 L 105.734375 192.96875 L 107.652344 192.96875 C 107.335938 197.097656 106.265625 201.1875 104.449219 205.234375 L 99.203125 205.234375 L 99.015625 205.058594 C 95.851562 202.050781 92.746094 198.972656 90.054688 195.53125 C 86.476562 190.957031 84.722656 185.246094 85.0625 179.457031 C 85.730469 168.046875 93.667969 160.902344 102.878906 158.574219 C 103.226562 156.960938 103.792969 155.417969 104.640625 153.992188 C 92.835938 155.957031 82.082031 164.597656 81.238281 178.949219 C 80.847656 185.671875 82.882812 192.296875 87.027344 197.605469 C 90.152344 201.605469 93.753906 205.183594 97.429688 208.667969 L 97.644531 208.871094 L 120.667969 208.871094 L 120.882812 208.667969 C 124.558594 205.183594 128.160156 201.601562 131.285156 197.605469 C 135.433594 192.296875 137.472656 185.667969 137.074219 178.949219 C 136.234375 164.566406 125.4375 155.917969 113.605469 153.976562 C 114.453125 155.398438 115.023438 156.945312 115.371094 158.554688 C 124.609375 160.863281 132.589844 168.015625 133.261719 179.453125 C 133.601562 185.242188 131.84375 190.953125 128.269531 195.53125 C 125.578125 198.972656 122.472656 202.054688 119.308594 205.058594 L 119.125 205.234375 L 113.800781 205.234375 C 111.984375 201.1875 110.917969 197.097656 110.597656 192.96875 L 112.519531 192.96875 Z M 106.878906 162.992188 C 106.878906 161.753906 107.882812 160.75 109.125 160.75 C 110.367188 160.75 111.375 161.753906 111.375 162.992188 C 111.375 164.230469 110.367188 165.238281 109.125 165.238281 C 107.886719 165.238281 106.878906 164.230469 106.878906 162.992188 Z M 109.210938 185.628906 L 103.246094 185.628906 C 102.957031 183.152344 103.523438 181.757812 104.945312 181.441406 L 104.90625 163.484375 C 104.808594 159.246094 105.851562 155.917969 108.035156 153.507812 C 108.367188 152.996094 108.734375 152.546875 109.128906 152.15625 C 109.527344 152.546875 109.894531 152.996094 110.226562 153.507812 C 112.410156 155.921875 113.449219 159.246094 113.351562 163.484375 L 113.316406 181.441406 C 114.738281 181.757812 115.304688 183.152344 115.015625 185.628906 Z M 121.46875 180.988281 L 114.902344 180.988281 L 114.921875 172.410156 C 119.121094 175.035156 121.304688 177.890625 121.46875 180.988281 Z M 104.296875 187.035156 L 113.957031 187.035156 L 113.957031 188.238281 L 104.296875 188.238281 Z M 96.785156 180.988281 C 96.949219 177.890625 99.132812 175.035156 103.332031 172.410156 L 103.351562 180.988281 Z M 92.90625 172.035156 C 92.96875 172.789062 93.335938 173.183594 94.003906 173.214844 C 93.335938 173.25 92.96875 173.648438 92.90625 174.398438 L 92.90625 174.53125 L 92.902344 174.453125 L 92.898438 174.53125 L 92.898438 174.398438 C 92.832031 173.644531 92.46875 173.25 91.796875 173.214844 C 92.46875 173.183594 92.832031 172.789062 92.898438 172.035156 L 92.898438 171.902344 L 92.902344 171.980469 L 92.90625 171.902344 Z M 99.859375 168.414062 C 99.921875 169.167969 100.289062 169.5625 100.957031 169.59375 C 100.289062 169.628906 99.921875 170.019531 99.859375 170.777344 L 99.859375 170.910156 L 99.855469 170.828125 L 99.851562 170.910156 L 99.851562 170.777344 C 99.785156 170.019531 99.421875 169.628906 98.753906 169.59375 C 99.425781 169.5625 99.789062 169.164062 99.851562 168.414062 L 99.851562 168.28125 L 99.855469 168.359375 L 99.859375 168.28125 Z M 94.320312 178.554688 C 94.386719 179.308594 94.753906 179.703125 95.421875 179.734375 C 94.753906 179.769531 94.386719 180.160156 94.320312 180.917969 L 94.320312 181.050781 L 94.316406 180.96875 L 94.3125 181.050781 L 94.3125 180.917969 C 94.25 180.160156 93.882812 179.769531 93.214844 179.734375 C 93.882812 179.703125 94.25 179.304688 94.3125 178.554688 L 94.3125 178.421875 L 94.316406 178.5 L 94.320312 178.421875 Z M 100.308594 186.734375 C 100.371094 187.488281 100.738281 187.882812 101.40625 187.914062 C 100.738281 187.949219 100.371094 188.34375 100.308594 189.097656 L 100.308594 189.230469 L 100.304688 189.152344 L 100.300781 189.230469 L 100.300781 189.097656 C 100.234375 188.34375 99.871094 187.949219 99.203125 187.914062 C 99.871094 187.882812 100.234375 187.488281 100.300781 186.734375 L 100.300781 186.601562 L 100.304688 186.679688 L 100.308594 186.601562 Z M 96.660156 192.421875 C 96.722656 193.175781 97.089844 193.570312 97.757812 193.605469 C 97.089844 193.636719 96.722656 194.03125 96.660156 194.785156 L 96.660156 194.917969 L 96.65625 194.839844 L 96.652344 194.917969 L 96.652344 194.785156 C 96.585938 194.03125 96.222656 193.636719 95.554688 193.605469 C 96.226562 193.570312 96.589844 193.171875 96.652344 192.421875 L 96.652344 192.289062 L 96.65625 192.367188 L 96.660156 192.289062 Z M 91.402344 186.199219 C 91.464844 186.953125 91.832031 187.34375 92.5 187.378906 C 91.832031 187.414062 91.464844 187.804688 91.402344 188.5625 L 91.402344 188.695312 L 91.398438 188.613281 L 91.394531 188.695312 L 91.394531 188.5625 C 91.332031 187.804688 90.964844 187.414062 90.296875 187.378906 C 90.964844 187.34375 91.332031 186.953125 91.394531 186.199219 L 91.394531 186.066406 L 91.398438 186.144531 L 91.402344 186.066406 Z M 99.769531 198.324219 C 99.835938 199.078125 100.203125 199.472656 100.871094 199.507812 C 100.203125 199.539062 99.835938 199.933594 99.769531 200.6875 L 99.769531 200.820312 L 99.769531 200.742188 L 99.765625 200.820312 L 99.765625 200.6875 C 99.699219 199.933594 99.332031 199.539062 98.667969 199.507812 C 99.335938 199.472656 99.703125 199.078125 99.765625 198.324219 L 99.765625 198.191406 L 99.769531 198.273438 L 99.769531 198.191406 Z M 126.203125 172.035156 L 126.203125 171.902344 L 126.207031 171.980469 L 126.210938 171.902344 L 126.210938 172.035156 C 126.277344 172.789062 126.644531 173.183594 127.3125 173.214844 C 126.644531 173.25 126.277344 173.648438 126.210938 174.398438 L 126.210938 174.53125 L 126.207031 174.453125 L 126.203125 174.53125 L 126.203125 174.398438 C 126.140625 173.644531 125.773438 173.25 125.105469 173.214844 C 125.773438 173.183594 126.140625 172.789062 126.203125 172.035156 Z M 119.253906 168.414062 L 119.253906 168.28125 L 119.253906 168.359375 L 119.257812 168.28125 L 119.257812 168.414062 C 119.324219 169.167969 119.691406 169.5625 120.359375 169.59375 C 119.691406 169.628906 119.324219 170.019531 119.257812 170.777344 L 119.257812 170.910156 L 119.253906 170.828125 L 119.253906 170.910156 L 119.253906 170.777344 C 119.1875 170.019531 118.820312 169.628906 118.15625 169.59375 C 118.820312 169.5625 119.1875 169.167969 119.253906 168.414062 Z M 124.789062 178.554688 L 124.789062 178.421875 L 124.792969 178.5 L 124.796875 178.421875 L 124.796875 178.554688 C 124.859375 179.308594 125.226562 179.703125 125.894531 179.734375 C 125.226562 179.769531 124.859375 180.160156 124.796875 180.917969 L 124.796875 181.050781 L 124.792969 180.96875 L 124.789062 181.050781 L 124.789062 180.917969 C 124.722656 180.160156 124.359375 179.769531 123.691406 179.734375 C 124.359375 179.703125 124.722656 179.304688 124.789062 178.554688 Z M 118.800781 186.734375 L 118.800781 186.601562 L 118.804688 186.679688 L 118.808594 186.601562 L 118.808594 186.734375 C 118.875 187.488281 119.242188 187.882812 119.90625 187.914062 C 119.238281 187.949219 118.871094 188.34375 118.808594 189.097656 L 118.808594 189.230469 L 118.804688 189.152344 L 118.800781 189.230469 L 118.800781 189.097656 C 118.738281 188.34375 118.371094 187.949219 117.703125 187.914062 C 118.371094 187.882812 118.738281 187.488281 118.800781 186.734375 Z M 122.449219 192.421875 L 122.449219 192.289062 L 122.453125 192.367188 L 122.457031 192.289062 L 122.457031 192.421875 C 122.523438 193.175781 122.890625 193.570312 123.554688 193.605469 C 122.886719 193.636719 122.519531 194.03125 122.457031 194.785156 L 122.457031 194.917969 L 122.453125 194.839844 L 122.449219 194.917969 L 122.449219 194.785156 C 122.386719 194.03125 122.019531 193.636719 121.351562 193.605469 C 122.019531 193.570312 122.386719 193.175781 122.449219 192.421875 Z M 127.707031 186.199219 L 127.707031 186.066406 L 127.710938 186.144531 L 127.714844 186.066406 L 127.714844 186.199219 C 127.78125 186.953125 128.144531 187.34375 128.816406 187.378906 C 128.144531 187.414062 127.78125 187.804688 127.714844 188.5625 L 127.714844 188.695312 L 127.710938 188.613281 L 127.707031 188.695312 L 127.707031 188.5625 C 127.644531 187.804688 127.277344 187.414062 126.609375 187.378906 C 127.277344 187.34375 127.644531 186.953125 127.707031 186.199219 Z M 119.339844 198.324219 L 119.339844 198.191406 L 119.34375 198.273438 L 119.347656 198.191406 L 119.347656 198.324219 C 119.410156 199.078125 119.777344 199.472656 120.445312 199.507812 C 119.777344 199.539062 119.410156 199.933594 119.347656 200.6875 L 119.347656 200.820312 L 119.34375 200.742188 L 119.339844 200.820312 L 119.339844 200.6875 C 119.273438 199.933594 118.910156 199.539062 118.238281 199.507812 C 118.910156 199.472656 119.273438 199.074219 119.339844 198.324219 Z M 99.023438 215.257812 L 118.667969 215.257812 C 119.488281 215.257812 120.042969 216.023438 120.042969 216.804688 C 120.042969 217.585938 119.488281 218.347656 118.667969 218.347656 L 99.023438 218.347656 C 98.199219 218.347656 97.648438 217.582031 97.648438 216.804688 C 97.648438 216.027344 98.199219 215.257812 99.023438 215.257812 Z M 115.359375 219.839844 C 113.785156 221.675781 111.449219 222.839844 108.847656 222.839844 C 106.242188 222.839844 103.90625 221.675781 102.335938 219.839844 Z M 115.359375 219.839844 " fill-opacity="1" fill-rule="evenodd"/></g><g clip-path="url(#0aa42ccccf)"><g clip-path="url(#e37b04265a)"><g transform="matrix(1, 0, 0, 1, 179, 70)"><g clip-path="url(#f58656d379)"><g clip-path="url(#7c5b09ac5a)"><g clip-path="url(#d2a4a46ad2)"><path fill="#ffffff" d="M 0.375 0.363281 L 15.121094 0.363281 L 15.121094 15.109375 L 0.375 15.109375 Z M 0.375 0.363281 " fill-opacity="1" fill-rule="nonzero"/></g></g></g></g></g></g><g fill="#140919" fill-opacity="1"><g transform="translate(155.872626, 203.249987)"><g><path d="M 22.296875 0 L 1.109375 0 L 6.578125 -30.890625 L 27.765625 -30.890625 L 26.609375 -24.5 L 12.484375 -24.5 L 11.4375 -18.53125 L 24.671875 -18.53125 L 23.609375 -12.359375 L 10.375 -12.359375 L 9.3125 -6.40625 L 23.4375 -6.40625 Z M 22.296875 0 "/></g></g></g><g fill="#140919" fill-opacity="1"><g transform="translate(179.527265, 203.249987)"><g><path d="M 10.71875 0.4375 C 8.957031 0.4375 7.367188 0.0234375 5.953125 -0.796875 C 4.546875 -1.617188 3.441406 -2.78125 2.640625 -4.28125 C 1.847656 -5.78125 1.453125 -7.488281 1.453125 -9.40625 C 1.453125 -12.019531 2.007812 -14.359375 3.125 -16.421875 C 4.25 -18.484375 5.738281 -20.085938 7.59375 -21.234375 C 9.445312 -22.378906 11.40625 -22.953125 13.46875 -22.953125 C 15 -22.953125 16.265625 -22.6875 17.265625 -22.15625 C 18.265625 -21.625 19.023438 -21.050781 19.546875 -20.4375 L 19.78125 -20.4375 L 21.578125 -30.890625 L 28.203125 -30.890625 L 22.78125 0 L 17.03125 0 L 16.953125 -2.203125 L 16.734375 -2.203125 C 16.234375 -1.523438 15.429688 -0.914062 14.328125 -0.375 C 13.222656 0.164062 12.019531 0.4375 10.71875 0.4375 Z M 12.53125 -5.65625 C 13.53125 -5.65625 14.472656 -5.929688 15.359375 -6.484375 C 16.242188 -7.046875 16.957031 -7.84375 17.5 -8.875 C 18.039062 -9.90625 18.3125 -11.066406 18.3125 -12.359375 C 18.3125 -13.710938 17.898438 -14.800781 17.078125 -15.625 C 16.253906 -16.445312 15.179688 -16.859375 13.859375 -16.859375 C 12.859375 -16.859375 11.910156 -16.578125 11.015625 -16.015625 C 10.117188 -15.460938 9.40625 -14.671875 8.875 -13.640625 C 8.34375 -12.609375 8.078125 -11.429688 8.078125 -10.109375 C 8.078125 -8.753906 8.476562 -7.671875 9.28125 -6.859375 C 10.09375 -6.054688 11.175781 -5.65625 12.53125 -5.65625 Z M 12.53125 -5.65625 "/></g></g></g><g fill="#140919" fill-opacity="1"><g transform="translate(204.285228, 203.249987)"><g><path d="M 10.203125 0.4375 C 7.691406 0.4375 5.722656 -0.285156 4.296875 -1.734375 C 2.867188 -3.191406 2.15625 -5.113281 2.15625 -7.5 C 2.15625 -8.125 2.234375 -8.875 2.390625 -9.75 L 4.671875 -22.515625 L 11.296875 -22.515625 L 9.140625 -10.375 C 9.078125 -9.957031 9.046875 -9.660156 9.046875 -9.484375 C 9.046875 -8.367188 9.40625 -7.476562 10.125 -6.8125 C 10.851562 -6.15625 11.773438 -5.828125 12.890625 -5.828125 C 14.035156 -5.828125 15.003906 -6.175781 15.796875 -6.875 C 16.597656 -7.582031 17.097656 -8.515625 17.296875 -9.671875 L 19.546875 -22.515625 L 26.171875 -22.515625 L 22.25 0 L 16.515625 0 L 16.375 -1.984375 L 16.15625 -1.984375 C 15.59375 -1.335938 14.765625 -0.769531 13.671875 -0.28125 C 12.585938 0.195312 11.429688 0.4375 10.203125 0.4375 Z M 10.203125 0.4375 "/></g></g></g><g fill="#140919" fill-opacity="1"><g transform="translate(228.292928, 203.249987)"><g><path d="M 12.3125 0.4375 C 10.195312 0.4375 8.3125 0 6.65625 -0.875 C 5.007812 -1.757812 3.738281 -2.972656 2.84375 -4.515625 C 1.945312 -6.066406 1.5 -7.8125 1.5 -9.75 C 1.5 -12.164062 2.085938 -14.378906 3.265625 -16.390625 C 4.441406 -18.410156 6.03125 -20.007812 8.03125 -21.1875 C 10.03125 -22.363281 12.207031 -22.953125 14.5625 -22.953125 C 17.507812 -22.953125 19.921875 -22.132812 21.796875 -20.5 C 23.679688 -18.863281 24.742188 -16.609375 24.984375 -13.734375 L 18.3125 -13.734375 C 18.113281 -14.703125 17.648438 -15.460938 16.921875 -16.015625 C 16.203125 -16.578125 15.285156 -16.859375 14.171875 -16.859375 C 13.140625 -16.859375 12.148438 -16.570312 11.203125 -16 C 10.265625 -15.425781 9.515625 -14.640625 8.953125 -13.640625 C 8.398438 -12.640625 8.125 -11.519531 8.125 -10.28125 C 8.125 -8.925781 8.554688 -7.816406 9.421875 -6.953125 C 10.285156 -6.085938 11.382812 -5.65625 12.71875 -5.65625 C 13.894531 -5.65625 14.867188 -5.929688 15.640625 -6.484375 C 16.421875 -7.046875 17.078125 -7.84375 17.609375 -8.875 L 24.40625 -8.875 C 23.875 -7.164062 23.035156 -5.601562 21.890625 -4.1875 C 20.742188 -2.78125 19.347656 -1.65625 17.703125 -0.8125 C 16.054688 0.0195312 14.257812 0.4375 12.3125 0.4375 Z M 12.3125 0.4375 "/></g></g></g><g fill="#140919" fill-opacity="1"><g transform="translate(251.594505, 203.249987)"><g><path d="M 8.515625 0.4375 C 6.929688 0.4375 5.539062 0.160156 4.34375 -0.390625 C 3.15625 -0.953125 2.242188 -1.71875 1.609375 -2.6875 C 0.972656 -3.664062 0.65625 -4.753906 0.65625 -5.953125 C 0.65625 -7.484375 1.035156 -8.851562 1.796875 -10.0625 C 2.566406 -11.269531 3.65625 -12.210938 5.0625 -12.890625 C 6.476562 -13.566406 8.113281 -13.90625 9.96875 -13.90625 L 16.203125 -13.90625 L 16.28125 -14.34375 C 16.34375 -14.632812 16.375 -14.84375 16.375 -14.96875 C 16.375 -15.789062 16.070312 -16.441406 15.46875 -16.921875 C 14.863281 -17.410156 14.09375 -17.65625 13.15625 -17.65625 C 12.269531 -17.65625 11.539062 -17.457031 10.96875 -17.0625 C 10.394531 -16.664062 10.003906 -16.203125 9.796875 -15.671875 L 3.359375 -15.671875 C 3.910156 -17.785156 5.03125 -19.523438 6.71875 -20.890625 C 8.414062 -22.265625 10.632812 -22.953125 13.375 -22.953125 C 16.195312 -22.953125 18.484375 -22.226562 20.234375 -20.78125 C 21.984375 -19.34375 22.859375 -17.375 22.859375 -14.875 C 22.859375 -14.226562 22.800781 -13.609375 22.6875 -13.015625 L 20.4375 0 L 14.703125 0 L 14.5625 -1.984375 L 14.34375 -1.984375 C 13.757812 -1.335938 12.957031 -0.769531 11.9375 -0.28125 C 10.925781 0.195312 9.785156 0.4375 8.515625 0.4375 Z M 10.59375 -4.671875 C 11.851562 -4.671875 12.898438 -5.03125 13.734375 -5.75 C 14.578125 -6.476562 15.101562 -7.460938 15.3125 -8.703125 L 15.453125 -9.484375 L 10.6875 -9.484375 C 9.625 -9.484375 8.804688 -9.234375 8.234375 -8.734375 C 7.660156 -8.234375 7.375 -7.570312 7.375 -6.75 C 7.375 -6.101562 7.660156 -5.59375 8.234375 -5.21875 C 8.804688 -4.851562 9.59375 -4.671875 10.59375 -4.671875 Z M 10.59375 -4.671875 "/></g></g></g><g fill="#140919" fill-opacity="1"><g transform="translate(273.130717, 203.249987)"><g><path d="M 9.359375 0 C 7.566406 0 6.164062 -0.453125 5.15625 -1.359375 C 4.15625 -2.273438 3.65625 -3.53125 3.65625 -5.125 C 3.65625 -5.625 3.703125 -6.109375 3.796875 -6.578125 L 5.515625 -16.203125 L 1.984375 -16.203125 L 3.09375 -22.515625 L 6.625 -22.515625 L 7.859375 -29.484375 L 14.484375 -29.484375 L 13.234375 -22.515625 L 18.3125 -22.515625 L 17.21875 -16.203125 L 12.140625 -16.203125 L 10.59375 -7.546875 C 10.5625 -7.460938 10.546875 -7.332031 10.546875 -7.15625 C 10.546875 -6.351562 11.003906 -5.953125 11.921875 -5.953125 L 15.359375 -5.953125 L 14.34375 0 Z M 9.359375 0 "/></g></g></g><g fill="#140919" fill-opacity="1"><g transform="translate(287.649755, 203.249987)"><g><path d="M 12.3125 0.4375 C 10.195312 0.4375 8.3125 0 6.65625 -0.875 C 5.007812 -1.757812 3.738281 -2.972656 2.84375 -4.515625 C 1.945312 -6.066406 1.5 -7.8125 1.5 -9.75 C 1.5 -12.164062 2.085938 -14.378906 3.265625 -16.390625 C 4.441406 -18.410156 6.03125 -20.007812 8.03125 -21.1875 C 10.03125 -22.363281 12.207031 -22.953125 14.5625 -22.953125 C 16.65625 -22.953125 18.492188 -22.523438 20.078125 -21.671875 C 21.671875 -20.816406 22.894531 -19.59375 23.75 -18 C 24.601562 -16.414062 25.03125 -14.578125 25.03125 -12.484375 C 25.03125 -11.546875 24.910156 -10.488281 24.671875 -9.3125 L 7.984375 -9.3125 C 8.109375 -8.050781 8.609375 -7 9.484375 -6.15625 C 10.367188 -5.320312 11.457031 -4.90625 12.75 -4.90625 C 14.550781 -4.90625 15.921875 -5.503906 16.859375 -6.703125 L 23.53125 -6.703125 C 22.53125 -4.648438 21.039062 -2.945312 19.0625 -1.59375 C 17.09375 -0.238281 14.84375 0.4375 12.3125 0.4375 Z M 18.625 -13.328125 C 18.5625 -14.597656 18.148438 -15.632812 17.390625 -16.4375 C 16.628906 -17.25 15.582031 -17.65625 14.25 -17.65625 C 13.019531 -17.65625 11.894531 -17.269531 10.875 -16.5 C 9.863281 -15.738281 9.09375 -14.679688 8.5625 -13.328125 Z M 18.625 -13.328125 "/></g></g></g></svg>